<svg xmlns="http://www.w3.org/2000/svg" viewBox="0 0 124.7 312.3"><path id="calves" fill="#4F4F4F" d="M84.4 251.1c-1 .6-1.5 1.8-1.5 3v11.9c0 1.1.9 2 2 2h2.5c1.1 0 2-.9 2-2v-11.9c0-1.2-.5-2.3-1.5-3l-1.5-.9zM42.8 251.1c-1 .6-1.5 1.8-1.5 3v11.9c0 1.1.9 2 2 2h2.5c1.1 0 2-.9 2-2v-11.9c0-1.2-.5-2.3-1.5-3l-1.5-.9z"/><path id="quadriceps" fill="#4F4F4F" d="M41.8 191.2h41.1v56.5H41.8z"/><path id="shoulders" fill="#4F4F4F" d="M22.9 83.2c-2.3 2-3.7 5-3.7 8.2 0 1.6.3 3.1.9 4.6l5.7 15.3c1.3 3.5 4.5 5.8 8.2 5.8h56.4c3.7 0 6.9-2.3 8.2-5.8l5.7-15.3c.6-1.5.9-3 .9-4.6 0-3.2-1.4-6.2-3.7-8.2L85.9 70c-1-1.1-2.5-1.7-4-1.7s-3 .6-4 1.7L62.3 83.2l-15.5-13.2c-1-.9-2.5-1.7-4-1.7s-3 .8-4 1.7L22.9 83.2z"/><path id="chest" fill="#4F4F4F" d="M38.8 99.3h47.1v36.1H38.8z"/><path id="abs" fill="#4F4F4F" d="M43.3 135.4h38.1v52.4H43.3z"/><path id="obliques" fill="#4F4F4F" d="M38.8 135.4H43v52.4h-4.2zM81.8 135.4h4.3v52.4h-4.3z"/><path id="adductors" fill="#4F4F4F" d="M54.1 191.2h16.5v43.3H54.1z"/><path id="biceps" fill="#4F4F4F" d="M26.4 122.3h10.9v28.8H26.4zM87.4 122.3h10.9v28.8H87.4z"/><path id="forearms" fill="#4F4F4F" d="M23.1 151.1h14.2v31.4H23.1zM87.4 151.1h14.2v31.4H87.4z"/></svg>