<svg xmlns="http://www.w3.org/2000/svg" viewBox="0 0 124.7 312.3"><path id="calves" fill="#4F4F4F" d="M41.3 251.1c1-.6 1.5-1.8 1.5-3v11.9c0 1.1-.9 2-2 2h-2.5c-1.1 0-2-.9-2-2v-11.9c0-1.2.5-2.3 1.5-3l1.5-.9zM81.9 251.1c1-.6 1.5-1.8 1.5-3v11.9c0 1.1-.9 2-2 2h-2.5c-1.1 0-2-.9-2-2v-11.9c0-1.2.5-2.3 1.5-3l1.5-.9z"/><path id="hamstrings" fill="#4F4F4F" d="M41.8 191.2h41.1v49.8H41.8z"/><path id="glutes" fill="#4F4F4F" d="M39.3 162.3h46.1v40.1H39.3z"/><path id="lower_back" fill="#4F4F4F" d="M46 135.4h32.6v37.6H46z"/><path id="lats" fill="#4F4F4F" d="M32.6 102h59.4v54.8H32.6z"/><path id="traps" fill="#4F4F4F" d="M46 80.7h32.6v42.5H46z"/><path id="shoulders" fill="#4F4F4F" d="M22.9 83.2c-2.3 2-3.7 5-3.7 8.2 0 1.6.3 3.1.9 4.6l5.7 15.3c1.3 3.5 4.5 5.8 8.2 5.8h56.4c3.7 0 6.9-2.3 8.2-5.8l5.7-15.3c.6-1.5.9-3 .9-4.6 0-3.2-1.4-6.2-3.7-8.2L85.9 70c-1-1.1-2.5-1.7-4-1.7s-3 .6-4 1.7L62.3 83.2l-15.5-13.2c-1-.9-2.5-1.7-4-1.7s-3 .8-4 1.7L22.9 83.2z"/><path id="triceps" fill="#4F4F4F" d="M26.4 122.3h10.9v28.8H26.4zM87.4 122.3h10.9v28.8H87.4z"/><path id="forearms" fill="#4F4F4F" d="M23.1 151.1h14.2v31.4H23.1zM87.4 151.1h14.2v31.4H87.4z"/></svg>